<svg version="1.1" xmlns="http://www.w3.org/2000/svg" xmlns:xlink="http://www.w3.org/1999/xlink" viewBox="0 0 172 172"><g fill="none" fill-rule="nonzero" stroke="none" stroke-width="1" stroke-linecap="butt" stroke-linejoin="miter" stroke-miterlimit="10" stroke-dasharray="" stroke-dashoffset="0" font-family="none" font-weight="none" font-size="none" text-anchor="none" style="mix-blend-mode: normal"><path d="M0,172v-172h172v172z" fill="#381c38"></path><g fill="#ffffff"><path d="M78.83333,14.33333v28.66667h14.33333v-12.8916c28.18308,3.65729 50.16667,26.6836 50.16667,55.8916c0,31.75311 -25.58023,57.33333 -57.33333,57.33333c-31.75311,0 -57.33333,-25.58023 -57.33333,-57.33333c0,-6.5575 1.09023,-13.00011 3.2474,-19.12044c0.45867,-1.28283 1.04387,-2.51113 1.5957,-3.7653l-10.61003,-10.87598c-1.72,3.19633 -3.282,6.47083 -4.49316,9.88216c-2.70183,7.66117 -4.07324,15.69522 -4.07324,23.87956c0,39.49789 32.16877,71.66667 71.66667,71.66667c39.49789,0 71.66667,-32.16877 71.66667,-71.66667c0,-39.49789 -32.16877,-71.66667 -71.66667,-71.66667zM41.01237,29.75846l-10.26009,10.00814l5.01107,5.13704l40.18652,41.18034l4.99707,5.12304l0.06999,-0.06998c1.33438,1.29806 3.12148,2.02595 4.98307,2.02962c3.95804,0 7.16667,-3.20863 7.16667,-7.16667c0,-2.25084 -1.05744,-4.37092 -2.85547,-5.72493l-4.10123,-4.19922l-40.18652,-41.18034z"></path></g></g></svg>